<mxfile host="app.diagrams.net" agent="Mozilla/5.0 (Windows NT 10.0; Win64; x64) AppleWebKit/537.36 (KHTML, like Gecko) Chrome/134.0.0.0 Safari/537.36" version="26.1.1">
  <diagram name="Página-1" id="S5fPgi4w4wDD92b4g_-J">
    <mxGraphModel dx="1035" dy="551" grid="1" gridSize="10" guides="1" tooltips="1" connect="1" arrows="1" fold="1" page="1" pageScale="1" pageWidth="827" pageHeight="1169" math="0" shadow="0">
      <root>
        <mxCell id="0" />
        <mxCell id="1" parent="0" />
        <mxCell id="F6BWODnnDloiSZcnxZ5W-2" value="Início" style="strokeWidth=2;html=1;shape=mxgraph.flowchart.terminator;whiteSpace=wrap;" vertex="1" parent="1">
          <mxGeometry x="320" y="60" width="160" height="50" as="geometry" />
        </mxCell>
        <mxCell id="F6BWODnnDloiSZcnxZ5W-11" style="edgeStyle=orthogonalEdgeStyle;rounded=0;orthogonalLoop=1;jettySize=auto;html=1;exitX=0;exitY=0;exitDx=93.75;exitDy=50;exitPerimeter=0;entryX=0.5;entryY=0;entryDx=0;entryDy=0;" edge="1" parent="1" source="F6BWODnnDloiSZcnxZ5W-3" target="F6BWODnnDloiSZcnxZ5W-8">
          <mxGeometry relative="1" as="geometry" />
        </mxCell>
        <mxCell id="F6BWODnnDloiSZcnxZ5W-3" value="&lt;font style=&quot;font-size: 11px;&quot;&gt;&amp;nbsp; &amp;nbsp; &amp;nbsp; &amp;nbsp; Fábrica de brinquedos - Otimização da produção de brinquedos&lt;/font&gt;" style="shape=display;whiteSpace=wrap;html=1;align=center;" vertex="1" parent="1">
          <mxGeometry x="310" y="150" width="170" height="50" as="geometry" />
        </mxCell>
        <mxCell id="F6BWODnnDloiSZcnxZ5W-6" style="edgeStyle=orthogonalEdgeStyle;rounded=0;orthogonalLoop=1;jettySize=auto;html=1;entryX=0.525;entryY=0.003;entryDx=0;entryDy=0;entryPerimeter=0;" edge="1" parent="1" source="F6BWODnnDloiSZcnxZ5W-2" target="F6BWODnnDloiSZcnxZ5W-3">
          <mxGeometry relative="1" as="geometry" />
        </mxCell>
        <mxCell id="F6BWODnnDloiSZcnxZ5W-12" style="edgeStyle=orthogonalEdgeStyle;rounded=0;orthogonalLoop=1;jettySize=auto;html=1;entryX=0.5;entryY=0;entryDx=0;entryDy=0;" edge="1" parent="1" source="F6BWODnnDloiSZcnxZ5W-8" target="F6BWODnnDloiSZcnxZ5W-9">
          <mxGeometry relative="1" as="geometry" />
        </mxCell>
        <mxCell id="F6BWODnnDloiSZcnxZ5W-8" value="validacao == &#39;s&#39;" style="rounded=0;whiteSpace=wrap;html=1;" vertex="1" parent="1">
          <mxGeometry x="335" y="230" width="130" height="40" as="geometry" />
        </mxCell>
        <mxCell id="F6BWODnnDloiSZcnxZ5W-9" value="validacao == &#39;s&#39;" style="shape=hexagon;perimeter=hexagonPerimeter2;whiteSpace=wrap;html=1;fixedSize=1;" vertex="1" parent="1">
          <mxGeometry x="340" y="310" width="120" height="40" as="geometry" />
        </mxCell>
        <mxCell id="F6BWODnnDloiSZcnxZ5W-13" value="&lt;font style=&quot;font-size: 11px;&quot;&gt;&amp;nbsp; &amp;nbsp;Digite o tipo de brinquedo: Carrinho / Boneca&lt;/font&gt;" style="shape=display;whiteSpace=wrap;html=1;align=center;" vertex="1" parent="1">
          <mxGeometry x="315" y="390" width="170" height="50" as="geometry" />
        </mxCell>
        <mxCell id="F6BWODnnDloiSZcnxZ5W-14" style="edgeStyle=orthogonalEdgeStyle;rounded=0;orthogonalLoop=1;jettySize=auto;html=1;entryX=0.506;entryY=-0.003;entryDx=0;entryDy=0;entryPerimeter=0;" edge="1" parent="1" source="F6BWODnnDloiSZcnxZ5W-9" target="F6BWODnnDloiSZcnxZ5W-13">
          <mxGeometry relative="1" as="geometry" />
        </mxCell>
        <mxCell id="F6BWODnnDloiSZcnxZ5W-18" style="edgeStyle=orthogonalEdgeStyle;rounded=0;orthogonalLoop=1;jettySize=auto;html=1;entryX=0.5;entryY=0;entryDx=0;entryDy=0;" edge="1" parent="1" source="F6BWODnnDloiSZcnxZ5W-15" target="F6BWODnnDloiSZcnxZ5W-17">
          <mxGeometry relative="1" as="geometry" />
        </mxCell>
        <mxCell id="F6BWODnnDloiSZcnxZ5W-15" value="&lt;div&gt;&lt;br&gt;&lt;/div&gt;escolha" style="shape=manualInput;whiteSpace=wrap;html=1;" vertex="1" parent="1">
          <mxGeometry x="340" y="470" width="120" height="60" as="geometry" />
        </mxCell>
        <mxCell id="F6BWODnnDloiSZcnxZ5W-16" style="edgeStyle=orthogonalEdgeStyle;rounded=0;orthogonalLoop=1;jettySize=auto;html=1;entryX=0.494;entryY=0.271;entryDx=0;entryDy=0;entryPerimeter=0;" edge="1" parent="1" source="F6BWODnnDloiSZcnxZ5W-13" target="F6BWODnnDloiSZcnxZ5W-15">
          <mxGeometry relative="1" as="geometry" />
        </mxCell>
        <mxCell id="F6BWODnnDloiSZcnxZ5W-59" style="edgeStyle=orthogonalEdgeStyle;rounded=0;orthogonalLoop=1;jettySize=auto;html=1;exitX=0;exitY=0.5;exitDx=0;exitDy=0;entryX=1;entryY=0.5;entryDx=0;entryDy=0;" edge="1" parent="1" source="F6BWODnnDloiSZcnxZ5W-17" target="F6BWODnnDloiSZcnxZ5W-58">
          <mxGeometry relative="1" as="geometry" />
        </mxCell>
        <mxCell id="F6BWODnnDloiSZcnxZ5W-17" value="escolha == &#39;Carrinho&#39;&amp;nbsp;" style="rhombus;whiteSpace=wrap;html=1;" vertex="1" parent="1">
          <mxGeometry x="305" y="585" width="190" height="80" as="geometry" />
        </mxCell>
        <mxCell id="F6BWODnnDloiSZcnxZ5W-46" style="edgeStyle=orthogonalEdgeStyle;rounded=0;orthogonalLoop=1;jettySize=auto;html=1;entryX=0.5;entryY=0;entryDx=0;entryDy=0;" edge="1" parent="1" source="F6BWODnnDloiSZcnxZ5W-25" target="F6BWODnnDloiSZcnxZ5W-45">
          <mxGeometry relative="1" as="geometry" />
        </mxCell>
        <mxCell id="F6BWODnnDloiSZcnxZ5W-25" value="&lt;font style=&quot;font-size: 11px;&quot;&gt;Produto válido! Produto&amp;nbsp;&lt;/font&gt;&lt;div&gt;&lt;font style=&quot;font-size: 11px;&quot;&gt;escolhido: Carrinho&lt;/font&gt;&lt;/div&gt;" style="shape=display;whiteSpace=wrap;html=1;align=center;" vertex="1" parent="1">
          <mxGeometry x="315" y="710" width="170" height="50" as="geometry" />
        </mxCell>
        <mxCell id="F6BWODnnDloiSZcnxZ5W-26" style="edgeStyle=orthogonalEdgeStyle;rounded=0;orthogonalLoop=1;jettySize=auto;html=1;entryX=0.502;entryY=0;entryDx=0;entryDy=0;entryPerimeter=0;" edge="1" parent="1" source="F6BWODnnDloiSZcnxZ5W-17" target="F6BWODnnDloiSZcnxZ5W-25">
          <mxGeometry relative="1" as="geometry" />
        </mxCell>
        <mxCell id="F6BWODnnDloiSZcnxZ5W-27" value="&lt;span style=&quot;font-size: 11px;&quot;&gt;Digite o número para&amp;nbsp;&lt;/span&gt;&lt;div&gt;&lt;span style=&quot;font-size: 11px;&quot;&gt;cálculo do fatorial:&lt;/span&gt;&lt;/div&gt;" style="shape=display;whiteSpace=wrap;html=1;align=center;" vertex="1" parent="1">
          <mxGeometry x="310" y="870" width="170" height="50" as="geometry" />
        </mxCell>
        <mxCell id="F6BWODnnDloiSZcnxZ5W-30" style="edgeStyle=orthogonalEdgeStyle;rounded=0;orthogonalLoop=1;jettySize=auto;html=1;" edge="1" parent="1">
          <mxGeometry relative="1" as="geometry">
            <mxPoint x="400" y="840" as="sourcePoint" />
            <mxPoint x="400" y="870" as="targetPoint" />
            <Array as="points">
              <mxPoint x="400" y="870" />
            </Array>
          </mxGeometry>
        </mxCell>
        <mxCell id="F6BWODnnDloiSZcnxZ5W-36" style="edgeStyle=orthogonalEdgeStyle;rounded=0;orthogonalLoop=1;jettySize=auto;html=1;entryX=0.5;entryY=0;entryDx=0;entryDy=0;" edge="1" parent="1" source="F6BWODnnDloiSZcnxZ5W-33" target="F6BWODnnDloiSZcnxZ5W-35">
          <mxGeometry relative="1" as="geometry" />
        </mxCell>
        <mxCell id="F6BWODnnDloiSZcnxZ5W-33" value="&lt;div&gt;&lt;br&gt;&lt;/div&gt;fatorialCarrinho" style="shape=manualInput;whiteSpace=wrap;html=1;" vertex="1" parent="1">
          <mxGeometry x="340" y="940" width="120" height="60" as="geometry" />
        </mxCell>
        <mxCell id="F6BWODnnDloiSZcnxZ5W-34" style="edgeStyle=orthogonalEdgeStyle;rounded=0;orthogonalLoop=1;jettySize=auto;html=1;entryX=0.461;entryY=0.264;entryDx=0;entryDy=0;entryPerimeter=0;" edge="1" parent="1" source="F6BWODnnDloiSZcnxZ5W-27" target="F6BWODnnDloiSZcnxZ5W-33">
          <mxGeometry relative="1" as="geometry" />
        </mxCell>
        <mxCell id="F6BWODnnDloiSZcnxZ5W-38" value="" style="edgeStyle=orthogonalEdgeStyle;rounded=0;orthogonalLoop=1;jettySize=auto;html=1;" edge="1" parent="1" source="F6BWODnnDloiSZcnxZ5W-35" target="F6BWODnnDloiSZcnxZ5W-37">
          <mxGeometry relative="1" as="geometry" />
        </mxCell>
        <mxCell id="F6BWODnnDloiSZcnxZ5W-40" value="Não" style="edgeLabel;html=1;align=center;verticalAlign=middle;resizable=0;points=[];" vertex="1" connectable="0" parent="F6BWODnnDloiSZcnxZ5W-38">
          <mxGeometry x="-0.1077" y="-1" relative="1" as="geometry">
            <mxPoint as="offset" />
          </mxGeometry>
        </mxCell>
        <mxCell id="F6BWODnnDloiSZcnxZ5W-43" style="edgeStyle=orthogonalEdgeStyle;rounded=0;orthogonalLoop=1;jettySize=auto;html=1;entryX=0.5;entryY=0;entryDx=0;entryDy=0;" edge="1" parent="1" source="F6BWODnnDloiSZcnxZ5W-35">
          <mxGeometry relative="1" as="geometry">
            <mxPoint x="400" y="1160" as="targetPoint" />
          </mxGeometry>
        </mxCell>
        <mxCell id="F6BWODnnDloiSZcnxZ5W-44" value="Sim" style="edgeLabel;html=1;align=center;verticalAlign=middle;resizable=0;points=[];" vertex="1" connectable="0" parent="F6BWODnnDloiSZcnxZ5W-43">
          <mxGeometry x="-0.3495" y="-1" relative="1" as="geometry">
            <mxPoint as="offset" />
          </mxGeometry>
        </mxCell>
        <mxCell id="F6BWODnnDloiSZcnxZ5W-35" value="fatorialCarrinho&amp;gt;0" style="rhombus;whiteSpace=wrap;html=1;" vertex="1" parent="1">
          <mxGeometry x="328.75" y="1040" width="142.5" height="80" as="geometry" />
        </mxCell>
        <mxCell id="F6BWODnnDloiSZcnxZ5W-39" style="edgeStyle=orthogonalEdgeStyle;rounded=0;orthogonalLoop=1;jettySize=auto;html=1;" edge="1" parent="1" source="F6BWODnnDloiSZcnxZ5W-37">
          <mxGeometry relative="1" as="geometry">
            <mxPoint x="400" y="780" as="targetPoint" />
            <Array as="points">
              <mxPoint x="620" y="780" />
              <mxPoint x="400" y="780" />
            </Array>
          </mxGeometry>
        </mxCell>
        <mxCell id="F6BWODnnDloiSZcnxZ5W-37" value="&lt;span style=&quot;font-size: 11px;&quot;&gt;&amp;nbsp; &amp;nbsp; O número digitado é inválido.&lt;/span&gt;&lt;div&gt;&lt;span style=&quot;font-size: 11px;&quot;&gt;Digite novamente.&lt;/span&gt;&lt;/div&gt;" style="shape=display;whiteSpace=wrap;html=1;align=center;" vertex="1" parent="1">
          <mxGeometry x="520" y="1055" width="170" height="50" as="geometry" />
        </mxCell>
        <mxCell id="F6BWODnnDloiSZcnxZ5W-45" value="i == true" style="shape=hexagon;perimeter=hexagonPerimeter2;whiteSpace=wrap;html=1;fixedSize=1;" vertex="1" parent="1">
          <mxGeometry x="340" y="800" width="120" height="40" as="geometry" />
        </mxCell>
        <mxCell id="F6BWODnnDloiSZcnxZ5W-49" style="edgeStyle=orthogonalEdgeStyle;rounded=0;orthogonalLoop=1;jettySize=auto;html=1;entryX=0.5;entryY=0;entryDx=0;entryDy=0;" edge="1" parent="1" source="F6BWODnnDloiSZcnxZ5W-47" target="F6BWODnnDloiSZcnxZ5W-48">
          <mxGeometry relative="1" as="geometry" />
        </mxCell>
        <mxCell id="F6BWODnnDloiSZcnxZ5W-47" value="i = false&lt;div&gt;fatorial = 1&lt;/div&gt;" style="rounded=0;whiteSpace=wrap;html=1;" vertex="1" parent="1">
          <mxGeometry x="335" y="1160" width="130" height="40" as="geometry" />
        </mxCell>
        <mxCell id="F6BWODnnDloiSZcnxZ5W-51" style="edgeStyle=orthogonalEdgeStyle;rounded=0;orthogonalLoop=1;jettySize=auto;html=1;entryX=0.5;entryY=0;entryDx=0;entryDy=0;" edge="1" parent="1" source="F6BWODnnDloiSZcnxZ5W-48" target="F6BWODnnDloiSZcnxZ5W-50">
          <mxGeometry relative="1" as="geometry" />
        </mxCell>
        <mxCell id="F6BWODnnDloiSZcnxZ5W-52" value="Sim" style="edgeLabel;html=1;align=center;verticalAlign=middle;resizable=0;points=[];" vertex="1" connectable="0" parent="F6BWODnnDloiSZcnxZ5W-51">
          <mxGeometry x="-0.0833" y="1" relative="1" as="geometry">
            <mxPoint as="offset" />
          </mxGeometry>
        </mxCell>
        <mxCell id="F6BWODnnDloiSZcnxZ5W-48" value="fatorialCarrinho &amp;gt; 1" style="shape=hexagon;perimeter=hexagonPerimeter2;whiteSpace=wrap;html=1;fixedSize=1;" vertex="1" parent="1">
          <mxGeometry x="330" y="1240" width="140" height="40" as="geometry" />
        </mxCell>
        <mxCell id="F6BWODnnDloiSZcnxZ5W-54" style="edgeStyle=orthogonalEdgeStyle;rounded=0;orthogonalLoop=1;jettySize=auto;html=1;exitX=0;exitY=0.5;exitDx=0;exitDy=0;" edge="1" parent="1" source="F6BWODnnDloiSZcnxZ5W-50">
          <mxGeometry relative="1" as="geometry">
            <mxPoint x="400" y="1220" as="targetPoint" />
            <Array as="points">
              <mxPoint x="288" y="1350" />
              <mxPoint x="288" y="1220" />
            </Array>
          </mxGeometry>
        </mxCell>
        <mxCell id="F6BWODnnDloiSZcnxZ5W-50" value="fatorial *=&amp;nbsp; fatorialCarrinho&lt;div&gt;fatorialCarrinho--&lt;/div&gt;" style="rounded=0;whiteSpace=wrap;html=1;" vertex="1" parent="1">
          <mxGeometry x="307.5" y="1330" width="185" height="40" as="geometry" />
        </mxCell>
        <mxCell id="F6BWODnnDloiSZcnxZ5W-55" value="&lt;span style=&quot;font-size: 11px;&quot;&gt;&amp;nbsp; &amp;nbsp; &amp;nbsp; &amp;nbsp; &quot;O número de rodas necessárias&amp;nbsp;&lt;/span&gt;&lt;div&gt;&lt;span style=&quot;font-size: 11px;&quot;&gt;&amp;nbsp; &amp;nbsp; &amp;nbsp; &amp;nbsp; &amp;nbsp;para o modelo desejado é: &quot;&amp;nbsp;&lt;/span&gt;&lt;/div&gt;&lt;div&gt;&lt;span style=&quot;font-size: 11px;&quot;&gt;&amp;nbsp; + fatorial&lt;/span&gt;&lt;/div&gt;" style="shape=display;whiteSpace=wrap;html=1;align=center;" vertex="1" parent="1">
          <mxGeometry x="530" y="1230" width="200" height="60" as="geometry" />
        </mxCell>
        <mxCell id="F6BWODnnDloiSZcnxZ5W-56" style="edgeStyle=orthogonalEdgeStyle;rounded=0;orthogonalLoop=1;jettySize=auto;html=1;entryX=-0.016;entryY=0.498;entryDx=0;entryDy=0;entryPerimeter=0;" edge="1" parent="1" source="F6BWODnnDloiSZcnxZ5W-48" target="F6BWODnnDloiSZcnxZ5W-55">
          <mxGeometry relative="1" as="geometry" />
        </mxCell>
        <mxCell id="F6BWODnnDloiSZcnxZ5W-58" value="escolha == &#39;Boneca&#39;&amp;nbsp;" style="rhombus;whiteSpace=wrap;html=1;" vertex="1" parent="1">
          <mxGeometry x="50" y="585" width="190" height="80" as="geometry" />
        </mxCell>
      </root>
    </mxGraphModel>
  </diagram>
</mxfile>
